<mxfile host="app.diagrams.net" agent="Mozilla/5.0 (Windows NT 10.0; Win64; x64) AppleWebKit/537.36 (KHTML, like Gecko) Chrome/131.0.0.0 Safari/537.36" version="25.0.3">
  <diagram name="第 1 页" id="6dd1Vlg0XudoXQV8JBnj">
    <mxGraphModel dx="1434" dy="738" grid="1" gridSize="10" guides="1" tooltips="1" connect="1" arrows="1" fold="1" page="1" pageScale="1" pageWidth="827" pageHeight="1169" math="0" shadow="0">
      <root>
        <mxCell id="0" />
        <mxCell id="1" parent="0" />
        <mxCell id="-gqslNFOtcHCyUIlhB2H-10" style="rounded=0;orthogonalLoop=1;jettySize=auto;html=1;" edge="1" parent="1" source="-gqslNFOtcHCyUIlhB2H-1" target="-gqslNFOtcHCyUIlhB2H-4">
          <mxGeometry relative="1" as="geometry">
            <mxPoint x="150" y="210" as="targetPoint" />
          </mxGeometry>
        </mxCell>
        <mxCell id="-gqslNFOtcHCyUIlhB2H-1" value="&lt;font style=&quot;font-size: 20px;&quot;&gt;訪客&lt;/font&gt;" style="shape=umlActor;verticalLabelPosition=bottom;verticalAlign=top;html=1;outlineConnect=0;" vertex="1" parent="1">
          <mxGeometry x="70" y="340" width="30" height="60" as="geometry" />
        </mxCell>
        <mxCell id="-gqslNFOtcHCyUIlhB2H-13" style="rounded=0;orthogonalLoop=1;jettySize=auto;html=1;endArrow=none;endFill=0;" edge="1" parent="1" source="-gqslNFOtcHCyUIlhB2H-4" target="-gqslNFOtcHCyUIlhB2H-11">
          <mxGeometry relative="1" as="geometry" />
        </mxCell>
        <mxCell id="-gqslNFOtcHCyUIlhB2H-14" style="rounded=0;orthogonalLoop=1;jettySize=auto;html=1;endArrow=none;endFill=0;" edge="1" parent="1" source="-gqslNFOtcHCyUIlhB2H-4" target="-gqslNFOtcHCyUIlhB2H-12">
          <mxGeometry relative="1" as="geometry" />
        </mxCell>
        <mxCell id="-gqslNFOtcHCyUIlhB2H-4" value="&lt;font style=&quot;font-size: 20px;&quot;&gt;顧客&lt;/font&gt;" style="shape=umlActor;verticalLabelPosition=bottom;verticalAlign=top;html=1;outlineConnect=0;" vertex="1" parent="1">
          <mxGeometry x="130" y="150" width="30" height="60" as="geometry" />
        </mxCell>
        <mxCell id="-gqslNFOtcHCyUIlhB2H-9" style="rounded=0;orthogonalLoop=1;jettySize=auto;html=1;" edge="1" parent="1" source="-gqslNFOtcHCyUIlhB2H-5" target="-gqslNFOtcHCyUIlhB2H-4">
          <mxGeometry relative="1" as="geometry" />
        </mxCell>
        <mxCell id="-gqslNFOtcHCyUIlhB2H-5" value="&lt;font style=&quot;font-size: 20px;&quot;&gt;會員&lt;/font&gt;" style="shape=umlActor;verticalLabelPosition=bottom;verticalAlign=top;html=1;outlineConnect=0;" vertex="1" parent="1">
          <mxGeometry x="200" y="340" width="30" height="60" as="geometry" />
        </mxCell>
        <mxCell id="-gqslNFOtcHCyUIlhB2H-11" value="&lt;font style=&quot;font-size: 20px;&quot;&gt;查詢店家資訊&lt;/font&gt;" style="ellipse;whiteSpace=wrap;html=1;" vertex="1" parent="1">
          <mxGeometry x="270" y="80" width="120" height="80" as="geometry" />
        </mxCell>
        <mxCell id="-gqslNFOtcHCyUIlhB2H-12" value="&lt;font style=&quot;font-size: 20px;&quot;&gt;查詢餐點&lt;/font&gt;" style="ellipse;whiteSpace=wrap;html=1;" vertex="1" parent="1">
          <mxGeometry x="270" y="170" width="120" height="80" as="geometry" />
        </mxCell>
        <mxCell id="-gqslNFOtcHCyUIlhB2H-15" value="&lt;font style=&quot;font-size: 20px;&quot;&gt;顧客使用案例圖&lt;/font&gt;" style="rounded=1;whiteSpace=wrap;html=1;" vertex="1" parent="1">
          <mxGeometry x="40" y="40" width="180" height="60" as="geometry" />
        </mxCell>
        <mxCell id="-gqslNFOtcHCyUIlhB2H-17" style="rounded=0;orthogonalLoop=1;jettySize=auto;html=1;endArrow=none;endFill=0;" edge="1" parent="1" source="-gqslNFOtcHCyUIlhB2H-16" target="-gqslNFOtcHCyUIlhB2H-5">
          <mxGeometry relative="1" as="geometry" />
        </mxCell>
        <mxCell id="-gqslNFOtcHCyUIlhB2H-16" value="&lt;font style=&quot;font-size: 20px;&quot;&gt;付款&lt;/font&gt;" style="ellipse;whiteSpace=wrap;html=1;" vertex="1" parent="1">
          <mxGeometry x="430" y="200" width="120" height="80" as="geometry" />
        </mxCell>
        <mxCell id="-gqslNFOtcHCyUIlhB2H-19" style="rounded=0;orthogonalLoop=1;jettySize=auto;html=1;" edge="1" parent="1" source="-gqslNFOtcHCyUIlhB2H-18" target="-gqslNFOtcHCyUIlhB2H-16">
          <mxGeometry relative="1" as="geometry" />
        </mxCell>
        <mxCell id="-gqslNFOtcHCyUIlhB2H-18" value="&lt;font style=&quot;font-size: 20px;&quot;&gt;線上&lt;/font&gt;" style="ellipse;whiteSpace=wrap;html=1;" vertex="1" parent="1">
          <mxGeometry x="600" y="80" width="120" height="80" as="geometry" />
        </mxCell>
        <mxCell id="-gqslNFOtcHCyUIlhB2H-21" style="rounded=0;orthogonalLoop=1;jettySize=auto;html=1;" edge="1" parent="1" source="-gqslNFOtcHCyUIlhB2H-20" target="-gqslNFOtcHCyUIlhB2H-16">
          <mxGeometry relative="1" as="geometry" />
        </mxCell>
        <mxCell id="-gqslNFOtcHCyUIlhB2H-20" value="&lt;font style=&quot;font-size: 20px;&quot;&gt;店內&lt;/font&gt;" style="ellipse;whiteSpace=wrap;html=1;" vertex="1" parent="1">
          <mxGeometry x="640" y="170" width="120" height="80" as="geometry" />
        </mxCell>
        <mxCell id="-gqslNFOtcHCyUIlhB2H-23" style="rounded=0;orthogonalLoop=1;jettySize=auto;html=1;endArrow=none;endFill=0;" edge="1" parent="1" source="-gqslNFOtcHCyUIlhB2H-22" target="-gqslNFOtcHCyUIlhB2H-5">
          <mxGeometry relative="1" as="geometry" />
        </mxCell>
        <mxCell id="-gqslNFOtcHCyUIlhB2H-22" value="&lt;font style=&quot;font-size: 20px;&quot;&gt;預約店面&lt;/font&gt;" style="ellipse;whiteSpace=wrap;html=1;" vertex="1" parent="1">
          <mxGeometry x="520" y="290" width="120" height="80" as="geometry" />
        </mxCell>
        <mxCell id="-gqslNFOtcHCyUIlhB2H-26" style="rounded=0;orthogonalLoop=1;jettySize=auto;html=1;endArrow=none;endFill=0;" edge="1" parent="1" source="-gqslNFOtcHCyUIlhB2H-24" target="-gqslNFOtcHCyUIlhB2H-5">
          <mxGeometry relative="1" as="geometry" />
        </mxCell>
        <mxCell id="-gqslNFOtcHCyUIlhB2H-24" value="&lt;font style=&quot;font-size: 20px;&quot;&gt;預訂快取&lt;/font&gt;" style="ellipse;whiteSpace=wrap;html=1;" vertex="1" parent="1">
          <mxGeometry x="570" y="380" width="120" height="80" as="geometry" />
        </mxCell>
        <mxCell id="-gqslNFOtcHCyUIlhB2H-27" style="rounded=0;orthogonalLoop=1;jettySize=auto;html=1;endArrow=none;endFill=0;" edge="1" parent="1" source="-gqslNFOtcHCyUIlhB2H-25" target="-gqslNFOtcHCyUIlhB2H-5">
          <mxGeometry relative="1" as="geometry" />
        </mxCell>
        <mxCell id="-gqslNFOtcHCyUIlhB2H-25" value="&lt;font style=&quot;font-size: 20px;&quot;&gt;管理訂單&lt;/font&gt;" style="ellipse;whiteSpace=wrap;html=1;" vertex="1" parent="1">
          <mxGeometry x="540" y="480" width="120" height="80" as="geometry" />
        </mxCell>
        <mxCell id="-gqslNFOtcHCyUIlhB2H-29" style="rounded=0;orthogonalLoop=1;jettySize=auto;html=1;endArrow=none;endFill=0;" edge="1" parent="1" source="-gqslNFOtcHCyUIlhB2H-28" target="-gqslNFOtcHCyUIlhB2H-5">
          <mxGeometry relative="1" as="geometry" />
        </mxCell>
        <mxCell id="-gqslNFOtcHCyUIlhB2H-28" value="&lt;font style=&quot;font-size: 20px;&quot;&gt;取得發票&lt;/font&gt;" style="ellipse;whiteSpace=wrap;html=1;" vertex="1" parent="1">
          <mxGeometry x="414" y="530" width="120" height="80" as="geometry" />
        </mxCell>
        <mxCell id="-gqslNFOtcHCyUIlhB2H-31" style="rounded=0;orthogonalLoop=1;jettySize=auto;html=1;endArrow=none;endFill=0;" edge="1" parent="1" source="-gqslNFOtcHCyUIlhB2H-30" target="-gqslNFOtcHCyUIlhB2H-5">
          <mxGeometry relative="1" as="geometry" />
        </mxCell>
        <mxCell id="-gqslNFOtcHCyUIlhB2H-30" value="&lt;font style=&quot;font-size: 20px;&quot;&gt;回饋&lt;/font&gt;" style="ellipse;whiteSpace=wrap;html=1;" vertex="1" parent="1">
          <mxGeometry x="270" y="560" width="120" height="80" as="geometry" />
        </mxCell>
      </root>
    </mxGraphModel>
  </diagram>
</mxfile>
